HIERARCHY
ROOT Hips
{
	OFFSET 0.000000 0.000000 0.000000
	CHANNELS 6 Xposition Yposition Zposition Xrotation Yrotation Zrotation
	JOINT LeftUpLeg_virtual
	{
		OFFSET 0.000000 0.000000 0.000000
		CHANNELS 3 Xrotation Yrotation Zrotation
		JOINT LeftUpLeg
		{
			OFFSET 15.427100 -6.655098 0.678600
			CHANNELS 3 Xrotation Yrotation Zrotation
			JOINT LeftLeg
			{
				OFFSET 4.081073 -39.591068 13.024000
				CHANNELS 3 Xrotation Yrotation Zrotation
				JOINT LeftFoot
				{
					OFFSET -4.081074 -37.707932 -15.979700
					CHANNELS 3 Xrotation Yrotation Zrotation
					JOINT LeftToeBase
					{
						OFFSET 5.346399 -15.068900 20.645000
						CHANNELS 3 Xrotation Yrotation Zrotation
						JOINT LeftToe_End
						{
							OFFSET 2.754700 0.931300 11.300900
							CHANNELS 3 Xrotation Yrotation Zrotation
							End Site
							{
								OFFSET 0 0 0
							}
						}
					}
				}
			}
		}
	}
	JOINT RightUpLeg_virtual
	{
		OFFSET 0.000000 0.000000 0.000000
		CHANNELS 3 Xrotation Yrotation Zrotation
		JOINT RightUpLeg
		{
			OFFSET -15.569500 -6.655098 0.678600
			CHANNELS 3 Xrotation Yrotation Zrotation
			JOINT RightLeg
			{
				OFFSET -4.081825 -39.591045 13.023800
				CHANNELS 3 Xrotation Yrotation Zrotation
				JOINT RightFoot
				{
					OFFSET 4.081824 -37.707954 -15.979600
					CHANNELS 3 Xrotation Yrotation Zrotation
					JOINT RightToeBase
					{
						OFFSET -5.346400 -15.068900 20.645000
						CHANNELS 3 Xrotation Yrotation Zrotation
						JOINT RightToe_End
						{
							OFFSET -2.754700 0.931300 11.300900
							CHANNELS 3 Xrotation Yrotation Zrotation
							End Site
							{
								OFFSET 0 0 0
							}
						}
					}
				}
			}
		}
	}
	JOINT Spine_virtual
	{
		OFFSET 0.000000 0.000000 0.000000
		CHANNELS 3 Xrotation Yrotation Zrotation
		JOINT Spine
		{
			OFFSET -0.279200 12.230698 -2.892100
			CHANNELS 3 Xrotation Yrotation Zrotation
			JOINT Spine1
			{
				OFFSET -0.232667 10.192268 -1.242267
				CHANNELS 3 Xrotation Yrotation Zrotation
				JOINT Spine1_split
				{
					OFFSET -0.232667 10.192268 -1.242267
					CHANNELS 3 Xrotation Yrotation Zrotation
					JOINT Spine2
					{
						OFFSET -0.232667 10.192268 -1.242267
						CHANNELS 3 Xrotation Yrotation Zrotation
						JOINT Neck_virtual
						{
							OFFSET 0.000000 0.000000 0.000000
							CHANNELS 3 Xrotation Yrotation Zrotation
							JOINT Neck
							{
								OFFSET -0.418800 17.814194 8.416900
								CHANNELS 3 Xrotation Yrotation Zrotation
								JOINT Head
								{
									OFFSET 0.000000 7.031097 3.806800
									CHANNELS 3 Xrotation Yrotation Zrotation
									JOINT HeadTop_End
									{
										OFFSET 0.000000 24.646606 12.978600
										CHANNELS 3 Xrotation Yrotation Zrotation
										End Site
										{
											OFFSET 0 0 0
										}
									}
								}
							}
						}
						JOINT LeftShoulder_virtual
						{
							OFFSET 0.000000 0.000000 0.000000
							CHANNELS 3 Xrotation Yrotation Zrotation
							JOINT LeftShoulder
							{
								OFFSET 8.476499 7.247704 -3.868750
								CHANNELS 3 Xrotation Yrotation Zrotation
								JOINT LeftShoulder_split
								{
									OFFSET 8.476499 7.247704 -3.868750
									CHANNELS 3 Xrotation Yrotation Zrotation
									JOINT LeftArm
									{
										OFFSET 9.308998 -2.777710 0.208600
										CHANNELS 3 Xrotation Yrotation Zrotation
										JOINT LeftForeArm
										{
											OFFSET 29.972298 0.000000 0.000000
											CHANNELS 3 Xrotation Yrotation Zrotation
											JOINT LeftHand
											{
												OFFSET 26.026505 0.000000 0.000000
												CHANNELS 3 Xrotation Yrotation Zrotation
												End Site
												{
													OFFSET 0 0 0
												}
											}
										}
									}
								}
							}
						}
						JOINT RightShoulder_virtual
						{
							OFFSET 0.000000 0.000000 0.000000
							CHANNELS 3 Xrotation Yrotation Zrotation
							JOINT RightShoulder
							{
								OFFSET -7.570500 7.247704 -3.868750
								CHANNELS 3 Xrotation Yrotation Zrotation
								JOINT RightShoulder_split
								{
									OFFSET -7.570500 7.247704 -3.868750
									CHANNELS 3 Xrotation Yrotation Zrotation
									JOINT RightArm
									{
										OFFSET -9.308998 -2.777710 0.208500
										CHANNELS 3 Xrotation Yrotation Zrotation
										JOINT RightForeArm
										{
											OFFSET -29.972300 0.000000 0.000000
											CHANNELS 3 Xrotation Yrotation Zrotation
											JOINT RightHand
											{
												OFFSET -26.026505 0.000000 0.000000
												CHANNELS 3 Xrotation Yrotation Zrotation
												End Site
												{
													OFFSET 0 0 0
												}
											}
										}
									}
								}
							}
						}
					}
				}
			}
		}
	}
}
MOTION
Frames: 7
Frame Time: 0.03333333
0.474833 113.033775 2.811932 0.000000 0.000000 0.000000 7.788065 -40.589605 3.274409 -79.761371 -18.649338 27.716180 63.574902 -0.429777 4.402409 21.085878 1.952555 -0.687113 -2.288971 1.969046 -2.562157 0.000000 0.000000 0.000000 7.645181 -44.787473 2.769396 -108.086883 -41.481351 0.888477 100.651478 26.908165 -7.138886 43.773733 6.543026 36.826338 9.140150 4.513750 -2.141030 0.000000 0.000000 0.000000 7.735484 -42.034886 2.391533 31.528840 -5.969788 -8.634015 12.958739 1.066909 -3.765868 0.519900 1.280251 1.152760 0.000000 0.000000 0.000000 12.859864 1.024973 -2.533828 -7.508943 18.230721 -13.580813 -26.804782 11.182722 4.966688 0.000000 0.000000 0.000000 14.079347 1.270378 -2.977117 13.095042 -17.847631 5.234538 1.320430 -4.221649 -3.191299 -59.050797 -10.081276 -6.325998 48.057064 -16.502700 29.648079 0.000000 0.000000 0.000000 14.828459 1.174834 -2.996179 18.673626 26.174065 -7.180923 0.284949 4.263735 2.356547 -35.813089 1.479252 8.474362 -43.121259 48.591400 33.175571 0.000000 0.000000 0.000000 
0.492418 113.032944 2.801674 0.000000 0.000000 0.000000 7.752473 -40.853841 3.393497 -79.621585 -18.540499 27.853284 63.469021 -0.487892 4.195941 20.911816 2.162216 -0.873624 -2.267635 1.961138 -2.587388 0.000000 0.000000 0.000000 7.668234 -45.044630 2.904517 -107.675487 -41.451213 0.952158 100.320398 27.113841 -7.025128 43.514746 6.348171 36.505012 9.076509 4.528128 -2.306031 0.000000 0.000000 0.000000 7.653134 -42.165094 2.477642 31.505778 -5.982066 -8.673497 12.927448 1.081541 -3.752010 0.471669 1.276003 1.167051 0.000000 0.000000 0.000000 12.897708 1.027980 -2.542552 -7.512048 18.244574 -13.590085 -26.623167 11.273823 4.818614 0.000000 0.000000 0.000000 14.044614 1.285751 -2.956703 12.821425 -17.919997 4.544048 1.480659 -4.314441 -3.454308 -58.238264 -9.485861 -6.204190 47.913220 -16.406125 29.381804 0.000000 0.000000 0.000000 14.806252 1.156555 -3.007156 18.186381 26.571500 -6.174263 0.276554 4.352499 2.337325 -34.725443 1.346903 8.412076 -43.236259 48.340920 33.096747 0.000000 0.000000 0.000000 
0.492665 113.031609 2.808105 0.000000 0.000000 0.000000 7.795995 -41.023725 3.538327 -79.448221 -18.469798 27.926103 63.294134 -0.597937 3.971634 20.614641 2.437561 -1.042964 -2.264135 1.939124 -2.578078 0.000000 0.000000 0.000000 7.744051 -45.203094 3.053349 -107.279118 -41.351867 1.019979 100.046166 27.300773 -6.930190 43.199584 6.168052 36.221641 8.984554 4.538360 -2.452925 0.000000 0.000000 0.000000 7.619079 -42.290380 2.591437 31.425267 -5.985623 -8.694319 12.879870 1.093238 -3.741846 0.442351 1.257672 1.185843 0.000000 0.000000 0.000000 12.911415 1.035253 -2.560576 -7.448292 18.254980 -13.615700 -26.399463 11.378024 4.700763 0.000000 0.000000 0.000000 14.003323 1.300881 -2.940957 12.594495 -17.913720 3.952387 1.545424 -4.424752 -3.736185 -57.318032 -8.655922 -5.930313 47.761894 -16.444655 29.184886 0.000000 0.000000 0.000000 14.771409 1.143945 -3.021005 17.741760 26.905333 -5.302993 0.265691 4.406682 2.391780 -33.784380 0.990034 8.234813 -43.319833 47.992252 32.964405 0.000000 0.000000 0.000000 
0.475451 113.040497 2.799171 0.000000 0.000000 0.000000 7.901758 -41.074289 3.704742 -79.239190 -18.449466 27.921035 63.066709 -0.740279 3.740679 20.233894 2.773531 -1.182114 -2.281254 1.906830 -2.536900 0.000000 0.000000 0.000000 7.858159 -45.271098 3.222185 -106.919781 -41.200493 1.036203 99.815824 27.474006 -6.839773 42.836518 6.032559 35.988704 8.870306 4.546935 -2.579756 0.000000 0.000000 0.000000 7.618582 -42.400196 2.735945 31.303276 -5.990271 -8.700562 12.829178 1.100317 -3.737339 0.446957 1.253349 1.245128 0.000000 0.000000 0.000000 12.905733 1.046376 -2.586653 -7.353171 18.252943 -13.638108 -26.146463 11.478669 4.630697 0.000000 0.000000 0.000000 13.958349 1.315171 -2.932686 12.401905 -17.838982 3.409376 1.493781 -4.494842 -4.027168 -56.304579 -7.564966 -5.572182 47.679512 -16.665371 29.118083 0.000000 0.000000 0.000000 14.725229 1.137272 -3.034332 17.343582 27.175690 -4.536863 0.276632 4.423470 2.510443 -33.053761 0.603525 8.012401 -43.283264 47.512486 32.697198 0.000000 0.000000 0.000000 
0.437799 113.065704 2.786472 0.000000 0.000000 0.000000 8.026534 -41.036535 3.889207 -78.988809 -18.469023 27.858381 62.803494 -0.896696 3.504210 19.800013 3.162165 -1.288227 -2.317836 1.872113 -2.482976 0.000000 0.000000 0.000000 8.004440 -45.276713 3.419282 -106.612163 -41.020607 0.952991 99.620782 27.637555 -6.727880 42.445965 5.953511 35.803397 8.726876 4.556432 -2.688025 0.000000 0.000000 0.000000 7.636944 -42.488182 2.896042 31.157312 -5.999087 -8.698468 12.775217 1.107914 -3.742761 0.478480 1.273872 1.264532 0.000000 0.000000 0.000000 12.875906 1.062678 -2.620434 -7.254700 18.242735 -13.653646 -25.879425 11.563686 4.622861 0.000000 0.000000 0.000000 13.903899 1.327965 -2.932439 12.217345 -17.712663 2.842101 1.334078 -4.476228 -4.237880 -55.262804 -6.180456 -5.149101 47.757345 -17.116089 29.234839 0.000000 0.000000 0.000000 14.663272 1.137175 -3.046189 16.988198 27.380686 -3.832289 0.282409 4.390076 2.676926 -32.498655 0.319536 7.781274 -43.125388 46.933583 32.311682 0.000000 0.000000 0.000000 
0.394834 113.105904 2.779789 0.000000 0.000000 0.000000 8.160246 -40.958230 4.094987 -78.710888 -18.506039 27.752443 62.527588 -1.061547 3.272424 19.355873 3.566727 -1.377307 -2.367242 1.841472 -2.428667 0.000000 0.000000 0.000000 8.147769 -45.267212 3.635662 -106.367854 -40.828023 0.751816 99.461741 27.804230 -6.590957 42.051402 5.938067 35.659499 8.553160 4.568504 -2.782598 0.000000 0.000000 0.000000 7.638164 -42.543432 3.055527 31.009899 -6.009086 -8.685652 12.719643 1.116278 -3.751317 0.504214 1.291380 1.283678 0.000000 0.000000 0.000000 12.821581 1.082660 -2.653235 -7.179139 18.220211 -13.657949 -25.607197 11.598325 4.670048 0.000000 0.000000 0.000000 13.834589 1.342300 -2.935010 12.021721 -17.517197 2.196669 1.082858 -4.398695 -4.321889 -54.297057 -4.554140 -4.691656 48.004571 -17.727363 29.519255 0.000000 0.000000 0.000000 14.583765 1.143545 -3.050695 16.665844 27.518953 -3.147221 0.270003 4.284136 2.856031 -32.090431 0.140463 7.576995 -42.849485 46.265888 31.826694 0.000000 0.000000 0.000000 
0.342361 113.152924 2.787506 0.000000 0.000000 0.000000 8.255643 -40.875028 4.308406 -78.421350 -18.517059 27.645351 62.257099 -1.242490 3.051236 18.935159 3.927766 -1.483574 -2.392795 1.815100 -2.383629 0.000000 0.000000 0.000000 8.266055 -45.254894 3.863272 -106.197953 -40.632348 0.441285 99.329413 27.971228 -6.424112 41.677449 5.974176 35.545384 8.350800 4.584754 -2.861831 0.000000 0.000000 0.000000 7.604647 -42.555921 3.187302 30.872841 -6.016210 -8.663321 12.656318 1.123986 -3.751560 0.520877 1.339804 1.265613 0.000000 0.000000 0.000000 12.741165 1.101649 -2.678168 -7.140499 18.178815 -13.653780 -25.333079 11.575587 4.751973 0.000000 0.000000 0.000000 13.752129 1.355171 -2.933026 11.808349 -17.229408 1.467768 0.746673 -4.275405 -4.337749 -53.468138 -2.713287 -4.215328 48.317598 -18.330939 29.858155 0.000000 0.000000 0.000000 14.484564 1.152342 -3.035381 16.358964 27.554214 -2.458753 0.192579 4.187246 2.975929 -31.717503 -0.038236 7.426154 -42.564755 45.614271 31.376950 0.000000 0.000000 0.000000 
